#!OML:ASF H:\ManfredETheater\Project 1\Capture day 1\Session 1\subject.ASF
:FULLY-SPECIFIED
:DEGREES
243
root 1.57575 18.0193 -26.4834 -178.832 -11.2969 -180.725
lowerback 9.44896 -1.96641 -1.63288
upperback -1.82747 -2.71567 1.8589
thorax -7.06533 -1.22856 3.29458
lowerneck -19.7412 -5.16851 -5.51047
upperneck 13.1683 -6.07028 3.34337
head 7.54719 -2.8613 1.24872
rclavicle 2.50966e-015 2.78299e-014
rhumerus -41.9667 -14.107 -74.4489
rradius 40.7965
rwrist 2.9645
rhand -21.6644 -9.71782
rfingers 7.12502
rthumb 4.73286 -39.645
lclavicle 2.50966e-015 2.78299e-014
lhumerus -35.3914 10.0661 82.7001
lradius 33.9713
lwrist -15.1413
lhand -3.21776 5.50758
lfingers 7.12502
lthumb 22.505 34.2161
rfemur -20.2655 -1.62484 14.4522
rtibia 39.0806
rfoot -14.0873 -6.26842
rtoes -30.4232
lfemur -18.8317 -6.26929 -20.8274
ltibia 36.6045
lfoot -17.3988 -11.5293
ltoes 12.0966
244
root 1.57092 18.0211 -26.4989 -178.88 -11.127 -180.675
lowerback 9.40917 -1.93305 -1.6301
upperback -1.85785 -2.67028 1.85906
thorax -7.07805 -1.20588 3.28559
lowerneck -19.8316 -5.15878 -5.49082
upperneck 13.3131 -6.06411 3.35348
head 7.60979 -2.85529 1.24681
rclavicle 4.58447e-015 1.07344e-014
rhumerus -41.9647 -13.9809 -74.7535
rradius 40.5634
rwrist 3.03207
rhand -21.5499 -9.70575
rfingers 7.12502
rthumb 4.84335 -39.6304
lclavicle 4.58447e-015 1.07344e-014
lhumerus -35.0912 10.1286 82.7152
lradius 33.7191
lwrist -15.2485
lhand -3.52051 5.65506
lfingers 7.12502
lthumb 22.2143 34.3985
rfemur -20.1924 -2.44043 14.7864
rtibia 39.7512
rfoot -14.1651 -6.90056
rtoes -30.3885
lfemur -18.7091 -6.25091 -20.802
ltibia 36.6038
lfoot -17.5026 -11.3278
ltoes 11.7463
245
root 1.5668 18.0224 -26.5154 -178.922 -10.9488 -180.644
lowerback 9.35396 -1.8977 -1.64361
upperback -1.88474 -2.62431 1.85164
thorax -7.07785 -1.18262 3.27681
lowerneck -19.9217 -5.14787 -5.47539
upperneck 13.4652 -6.05701 3.37086
head 7.67523 -2.84836 1.24806
rclavicle 2.76311e-014 -1.39149e-014
rhumerus -41.9561 -13.8486 -75.0566
rradius 40.3261
rwrist 3.11432
rhand -21.4598 -9.67569
rfingers 7.12502
rthumb 4.93035 -39.5983
lclavicle 2.76311e-014 -1.39149e-014
lhumerus -34.8144 10.1936 82.7184
lradius 33.5334
lwrist -15.2983
lhand -3.83493 5.80788
lfingers 7.12502
lthumb 21.9125 34.587
rfemur -20.0977 -3.2303 15.0968
rtibia 40.3817
rfoot -14.2512 -7.48159
rtoes -30.3222
lfemur -18.5799 -6.21379 -20.7904
ltibia 36.601
lfoot -17.6416 -11.1411
ltoes 11.3288
246
root 1.56395 18.0233 -26.5327 -178.954 -10.757 -180.625
lowerback 9.29004 -1.85899 -1.67328
upperback -1.91671 -2.57577 1.84046
thorax -7.07774 -1.15738 3.27258
lowerneck -20.0068 -5.13386 -5.45849
upperneck 13.6291 -6.0473 3.38902
head 7.74377 -2.84012 1.24972
rclavicle -5.2181e-016 -1.59028e-014
rhumerus -41.9451 -13.7158 -75.3527
rradius 40.0754
rwrist 3.22625
rhand -21.3898 -9.62218
rfingers 7.12502
rthumb 4.99797 -39.5432
lclavicle -5.2181e-016 -1.59028e-014
lhumerus -34.5821 10.2539 82.7096
lradius 33.4276
lwrist -15.2833
lhand -4.15882 5.96366
lfingers 7.12502
lthumb 21.6014 34.7788
rfemur -19.9938 -3.97409 15.3942
rtibia 40.9672
rfoot -14.337 -8.01061
rtoes -30.2241
lfemur -18.4544 -6.15336 -20.7801
ltibia 36.5962
lfoot -17.8061 -10.972
ltoes 10.8719
247
root 1.5622 18.0236 -26.5509 -178.974 -10.5568 -180.621
lowerback 9.21097 -1.81901 -1.71888
upperback -1.95379 -2.52742 1.82317
thorax -7.074 -1.13165 3.27042
lowerneck -20.0795 -5.11589 -5.4389
upperneck 13.7993 -6.03438 3.40746
head 7.81222 -2.83039 1.25169
rclavicle -5.10255e-014 -4.77083e-015
rhumerus -41.9349 -13.5832 -75.6428
rradius 39.8155
rwrist 3.36745
rhand -21.3417 -9.54942
rfingers 7.12502
rthumb 5.04439 -39.4694
lclavicle -5.10255e-014 -4.77083e-015
lhumerus -34.3946 10.3051 82.6884
lradius 33.3978
lwrist -15.2045
lhand -4.49209 6.10822
lfingers 7.12502
lthumb 21.2814 34.9598
rfemur -19.8778 -4.68024 15.6719
rtibia 41.5017
rfoot -14.4238 -8.46955
rtoes -30.1033
lfemur -18.3347 -6.07269 -20.7766
ltibia 36.5912
lfoot -17.9865 -10.8262
ltoes 10.416
248
root 1.56139 18.0235 -26.5703 -178.983 -10.3527 -180.635
lowerback 9.11668 -1.77893 -1.7787
upperback -1.99725 -2.4807 1.79817
thorax -7.06801 -1.1062 3.26795
lowerneck -20.1392 -5.09401 -5.41739
upperneck 13.977 -6.01821 3.42607
head 7.88091 -2.81923 1.25408
rclavicle 5.09386e-016 6.75868e-015
rhumerus -41.9277 -13.4531 -75.9251
rradius 39.5455
rwrist 3.52996
rhand -21.3124 -9.46449
rfingers 7.12502
rthumb 5.07271 -39.3838
lclavicle 5.09386e-016 6.75868e-015
lhumerus -34.2516 10.3484 82.6535
lradius 33.4352
lwrist -15.0673
lhand -4.83536 6.22766
lfingers 7.12502
lthumb 20.9516 35.1161
rfemur -19.7432 -5.35401 15.9275
rtibia 41.9773
rfoot -14.497 -8.86412
rtoes -30.0288
lfemur -18.2193 -5.97546 -20.7842
ltibia 36.5878
lfoot -18.178 -10.7045
ltoes 9.97852
249
root 1.56193 18.0228 -26.5905 -178.978 -10.1424 -180.65
lowerback 9.01359 -1.73792 -1.84171
upperback -2.05257 -2.4331 1.77082
thorax -7.06969 -1.07995 3.26477
lowerneck -20.1824 -5.06917 -5.39567
upperneck 14.1636 -5.99984 3.44433
head 7.94983 -2.80737 1.25689
rclavicle -2.045e-014 1.15295e-014
rhumerus -41.928 -13.3292 -76.1964
rradius 39.2641
rwrist 3.71339
rhand -21.3078 -9.35633
rfingers 7.12502
rthumb 5.07718 -39.2755
lclavicle -2.045e-014 1.15295e-014
lhumerus -34.1568 10.3722 82.6085
lradius 33.5353
lwrist -14.8688
lhand -5.19683 6.32317
lfingers 7.12502
lthumb 20.6043 35.2496
rfemur -19.5918 -5.97972 16.1805
rtibia 42.3838
rfoot -14.5447 -9.20682
rtoes -30.0567
lfemur -18.1185 -5.86557 -20.7846
ltibia 36.5893
lfoot -18.37 -10.6035
ltoes 9.59252
